<svg xmlns="http://www.w3.org/2000/svg" viewBox="0 0 512 512" width="512" height="512">
  <defs>
    <linearGradient id="grad1" x1="0%" y1="0%" x2="100%" y2="100%">
      <stop offset="0%" style="stop-color:#3b82f6;stop-opacity:1" />
      <stop offset="100%" style="stop-color:#2563eb;stop-opacity:1" />
    </linearGradient>
  </defs>
  <rect width="512" height="512" rx="120" fill="url(#grad1)"/>
  <path d="M384 192h-85.3c-7.3 0-14.3 3.6-18.7 9.6L256 235.6l-24-34c-4.4-6-11.4-9.6-18.7-9.6H128c-17.7 0-32 14.3-32 32v128c0 17.7 14.3 32 32 32h128c17.7 0 32-14.3 32-32v-42.7h96c17.7 0 32-14.3 32-32V224c0-17.7-14.3-32-32-32z" fill="white"/>
  <rect x="224" y="128" width="64" height="64" rx="10" fill="white"/>
</svg>
